<mxfile host="app.diagrams.net" modified="2023-11-02T23:38:46.765Z" agent="Mozilla/5.0 (Macintosh; Intel Mac OS X 10_15_7) AppleWebKit/537.36 (KHTML, like Gecko) Chrome/114.0.0.0 Safari/537.36" version="22.0.8" etag="AYasYH1a7u8iIqacc6Aa" type="github">
  <diagram name="페이지-1" id="dyR3pn3bliQrWMZPbEqo">
    <mxGraphModel>
      <root>
        <mxCell id="0" />
        <mxCell id="1" parent="0" />
      </root>
    </mxGraphModel>
  </diagram>
</mxfile>
